<svg version="1.1" id="Layer_1" xmlns="http://www.w3.org/2000/svg" xmlns:xlink="http://www.w3.org/1999/xlink" x="0px" y="0px"
	 width="100%" viewBox="0 0 500 500" enable-background="new 0 0 500 500" xml:space="preserve">
<path fill="#FFFFFF" opacity="1.000000" stroke="none" 
	d="
M274.000000,501.000000 
	C182.666687,501.000000 91.833374,501.000000 1.000049,501.000000 
	C1.000032,334.333405 1.000032,167.666794 1.000016,1.000138 
	C167.666565,1.000092 334.333130,1.000092 500.999756,1.000046 
	C500.999847,167.666519 500.999847,334.333038 500.999939,500.999786 
	C425.500000,501.000000 350.000000,501.000000 274.000000,501.000000 
M242.500015,268.846375 
	C232.078796,268.846375 221.657578,268.846375 211.273987,268.846375 
	C211.273987,278.932770 211.273987,288.327698 211.273987,297.674255 
	C284.314240,297.674255 357.019379,297.674255 429.680054,297.674255 
	C429.680054,287.941162 429.680054,278.533722 429.680054,268.846283 
	C367.403290,268.846283 305.451660,268.846283 242.500015,268.846375 
M115.791550,271.149994 
	C138.606491,271.054474 161.421570,270.887756 184.236252,270.929962 
	C188.276733,270.937408 190.182022,269.576965 191.077118,265.534424 
	C193.986664,252.394150 197.251938,239.332718 200.371872,226.238922 
	C201.881668,219.902557 201.162155,219.005066 194.525436,219.001877 
	C176.706299,218.993301 158.887161,218.998947 141.068024,218.998947 
	C134.094894,218.998947 127.121773,218.998947 119.938133,218.998947 
	C119.271553,213.879166 118.652611,209.125214 117.985489,204.001251 
	C111.826668,204.001251 105.825211,203.675232 99.898537,204.197617 
	C98.093231,204.356750 95.441383,206.602997 95.030510,208.333420 
	C94.290649,211.449402 96.738045,213.079071 99.877335,213.134369 
	C103.154724,213.192108 106.433922,213.147263 110.069229,213.147263 
	C110.368935,218.587524 110.820076,223.388443 110.861740,228.192932 
	C110.970032,240.682037 110.915848,253.172745 110.885452,265.662720 
	C110.878525,268.510773 110.950226,271.182068 115.791550,271.149994 
M262.068054,223.585190 
	C262.068054,237.645645 262.068054,251.706100 262.068054,265.687134 
	C266.724213,265.687134 270.484985,265.687134 274.815857,265.687134 
	C274.815857,260.147583 274.815857,254.908310 274.815857,249.669037 
	C275.134521,249.664993 275.453186,249.660934 275.771851,249.656891 
	C276.006653,255.020676 276.241486,260.384430 276.475159,265.722168 
	C280.898499,265.722168 284.668610,265.722168 288.825287,265.722168 
	C288.622467,264.127014 288.428986,262.863800 288.306091,261.593781 
	C287.810944,256.476807 286.841827,251.344345 286.978851,246.242630 
	C287.159027,239.536072 288.561646,232.864899 288.790985,226.156357 
	C288.987488,220.408386 286.301331,217.049683 280.781921,216.489197 
	C274.754242,215.877090 268.616394,216.350067 262.068146,216.350067 
	C262.068146,218.687531 262.068146,220.650055 262.068054,223.585190 
M403.519653,222.371613 
	C400.753082,233.990936 409.503174,240.819275 415.748566,249.521118 
	C410.901642,249.521118 407.140442,249.521118 403.092529,249.521118 
	C403.092529,252.530945 403.001709,255.170227 403.113464,257.800903 
	C403.288361,261.918854 405.401520,265.092194 409.372498,265.759338 
	C413.523071,266.456635 417.930237,266.501923 422.104553,265.938354 
	C426.368927,265.362640 428.623047,262.077698 428.764526,257.785248 
	C429.029907,249.731659 427.365082,242.267807 421.496765,236.235596 
	C420.069885,234.768890 418.782654,233.166290 416.716614,230.811722 
	C419.466980,230.811722 421.064117,230.811707 422.661255,230.811707 
	C424.407074,230.811707 426.152893,230.811722 427.826477,230.811722 
	C428.737885,221.140717 427.207977,217.785690 421.428192,216.052780 
	C413.609283,213.708527 406.663940,215.893326 403.519653,222.371613 
M373.765625,234.939423 
	C372.229004,245.102844 370.692383,255.266266 369.110382,265.729797 
	C373.489105,265.729797 377.708740,265.729797 381.748138,265.729797 
	C382.081390,263.526398 382.369141,261.623871 382.656921,259.721344 
	C383.222931,259.736053 383.788971,259.750732 384.354980,259.765442 
	C384.607544,261.732697 384.860138,263.699951 385.126923,265.778015 
	C389.239838,265.778015 393.327423,265.778015 397.722931,265.778015 
	C395.225403,249.045334 392.769257,232.589828 390.360718,216.453247 
	C385.227753,216.453247 380.824219,216.453247 376.402374,216.453247 
	C375.527008,222.567993 374.704224,228.315338 373.765625,234.939423 
M210.367706,216.036179 
	C207.749756,216.036179 205.131805,216.036179 201.758835,216.036179 
	C204.270279,232.963715 206.687820,249.258331 209.172821,266.007660 
	C212.667603,266.007660 215.809402,265.785522 218.905426,266.066986 
	C222.350525,266.380188 223.524963,264.877350 223.946442,261.671417 
	C225.113022,252.798050 226.571381,243.963470 227.841095,235.103058 
	C228.722672,228.951187 229.482910,222.781921 230.334045,216.342712 
	C225.611710,216.342712 221.718460,216.342712 216.722794,216.342712 
	C216.722794,222.951569 216.722794,229.282822 216.722794,235.614059 
	C216.137772,235.587082 215.552734,235.560104 214.967712,235.533127 
	C214.967712,230.264053 214.859039,224.991806 215.011917,219.727173 
	C215.092667,216.946365 214.143723,215.655502 210.367706,216.036179 
M299.163940,240.339752 
	C300.215179,248.680466 301.266388,257.021179 302.348450,265.606567 
	C306.103363,265.606567 310.286438,265.606567 313.147125,265.606567 
	C316.055359,248.807190 318.854553,232.637512 321.650848,216.484634 
	C317.360840,216.484634 313.322449,216.484634 309.324768,216.484634 
	C309.024658,220.465332 308.758270,223.998795 308.491882,227.532242 
	C308.116028,227.495682 307.740204,227.459122 307.364349,227.422546 
	C307.129669,223.699905 306.894989,219.977264 306.667023,216.361023 
	C302.162445,216.361023 298.240021,216.361023 293.788025,216.361023 
	C295.605103,224.354645 297.326813,231.928711 299.163940,240.339752 
M356.862579,251.500427 
	C356.862579,249.236938 356.862579,246.973465 356.862579,244.717651 
	C359.178772,244.440567 360.925415,244.231628 362.639923,244.026520 
	C362.639923,241.971893 362.639923,240.211121 362.639923,238.032349 
	C360.680298,238.032349 358.931854,238.032349 357.180725,238.032349 
	C357.180725,233.384140 357.180725,229.168152 357.180725,224.705811 
	C359.616882,224.705811 361.733337,224.705811 363.957031,224.705811 
	C363.957031,221.715820 363.957031,218.982971 363.957031,216.408142 
	C357.100220,216.408142 350.559082,216.408142 344.080505,216.408142 
	C344.080505,233.096710 344.080505,249.454117 344.080505,265.757660 
	C350.961517,265.757660 357.542358,265.757660 364.122070,265.757660 
	C364.122070,262.958557 364.122070,260.422607 364.122070,257.855103 
	C361.532928,257.677521 359.307831,257.524902 356.862579,257.357178 
	C356.862579,255.453033 356.862579,253.972443 356.862579,251.500427 
M249.537170,245.172958 
	C254.003891,244.922836 256.341309,243.205338 254.247559,238.258545 
	C252.617645,238.077774 251.016937,237.900238 249.301300,237.709946 
	C249.301300,233.386932 249.301300,229.338394 249.301300,225.239441 
	C251.741547,224.971481 253.822983,224.742935 255.773529,224.528763 
	C255.773529,221.530838 255.773529,218.968277 255.773529,216.435333 
	C248.956894,216.435333 242.563675,216.435333 236.182739,216.435333 
	C236.182739,233.070374 236.182739,249.303787 236.182739,266.007935 
	C239.812744,266.007935 243.109512,266.007904 246.406281,266.007904 
	C249.686569,266.007904 252.966858,266.007935 256.118561,266.007935 
	C257.501801,258.064850 257.501801,258.064850 249.087189,256.709412 
	C249.087189,253.192139 249.087189,249.575317 249.537170,245.172958 
M434.012665,221.395096 
	C434.957611,223.228287 435.902557,225.061493 436.847504,226.894699 
	C437.400879,226.716202 437.954224,226.537720 438.507568,226.359222 
	C438.507568,239.427139 438.507568,252.495056 438.507568,265.784790 
	C442.908783,265.784790 446.954193,265.784790 451.310852,265.784790 
	C451.310852,252.480392 451.310852,239.406540 451.310852,226.146408 
	C452.936798,225.757416 454.312317,225.428345 455.666382,225.104416 
	C455.666382,222.092102 455.666382,219.323196 455.666382,216.321640 
	C448.417419,216.321640 441.380432,216.321640 434.012665,216.321640 
	C434.012665,217.872360 434.012665,219.168579 434.012665,221.395096 
M153.060959,297.800537 
	C160.155609,298.133118 165.044357,295.166107 166.710312,289.516693 
	C168.229919,284.363586 166.206863,278.761688 161.756042,275.999176 
	C157.573105,273.402954 153.294540,273.264862 149.059280,275.848694 
	C144.994995,278.328247 143.098511,282.129883 143.443237,286.766266 
	C143.854279,292.294525 146.961868,295.922150 153.060959,297.800537 
M133.525665,287.145599 
	C133.124451,278.868744 128.240723,273.693878 121.143211,274.025024 
	C114.232307,274.347412 109.415962,280.000854 109.924553,287.193542 
	C110.322868,292.826752 114.798012,297.350372 120.554749,297.938873 
	C126.612663,298.558167 131.377335,294.832703 133.525665,287.145599 
M45.939022,251.024780 
	C46.550499,251.271088 47.161224,251.730545 47.773567,251.732712 
	C65.745041,251.796539 83.717789,251.902588 101.686157,251.674072 
	C103.125130,251.655762 104.534134,249.280441 105.957069,248.000458 
	C104.346375,246.945145 102.747192,244.993286 101.123207,244.972412 
	C83.818649,244.750000 66.510155,244.840897 49.202755,244.828217 
	C45.048256,244.825165 43.774479,246.714874 45.939022,251.024780 
M101.062721,274.686584 
	C103.822510,274.788361 106.615128,274.189056 105.806686,270.835144 
	C105.450386,269.357056 102.682350,267.551392 100.938011,267.472626 
	C93.003586,267.114349 85.033180,267.102783 77.101830,267.494781 
	C75.454544,267.576172 73.918243,269.902985 72.330795,271.194977 
	C73.986290,272.358643 75.597328,274.444794 77.304924,274.527069 
	C84.906677,274.893372 92.536049,274.686401 101.062721,274.686584 
M72.409454,226.532623 
	C74.037285,227.740341 75.620285,229.913300 77.300583,229.991348 
	C85.248764,230.360504 93.223595,230.141190 101.188805,230.167023 
	C103.733978,230.175262 106.431816,229.680634 105.771263,226.619980 
	C105.453026,225.145416 102.772812,223.238770 101.087395,223.161682 
	C93.138748,222.797989 85.159187,222.852814 77.203201,223.124893 
	C75.624130,223.178909 74.100006,224.839600 72.409454,226.532623 
z"/>
<path fill="#FA7112" opacity="1.000000" stroke="none" 
	d="
M243.000031,268.846313 
	C305.451660,268.846283 367.403290,268.846283 429.680054,268.846283 
	C429.680054,278.533722 429.680054,287.941162 429.680054,297.674255 
	C357.019379,297.674255 284.314240,297.674255 211.273987,297.674255 
	C211.273987,288.327698 211.273987,278.932770 211.273987,268.846375 
	C221.657578,268.846375 232.078796,268.846375 243.000031,268.846313 
M248.275558,289.923737 
	C249.045166,287.892761 249.814758,285.861786 250.439362,284.213501 
	C251.544586,285.970520 252.781418,287.936798 254.018265,289.903046 
	C255.344589,288.103363 256.670929,286.303711 258.097046,284.368591 
	C258.433685,286.032318 258.785858,287.772858 259.418976,290.901764 
	C260.950806,289.576202 262.784515,288.752747 262.858490,287.793579 
	C263.183014,283.586853 262.998352,279.340790 262.998352,275.690002 
	C256.325378,272.699860 255.760483,277.223450 254.361359,281.191711 
	C252.274933,277.681610 251.814499,272.261902 246.008591,275.492889 
	C245.795319,279.132629 245.394440,282.771912 245.475098,286.400482 
	C245.501953,287.608734 246.762939,288.789551 248.275558,289.923737 
M309.032440,276.836243 
	C309.032440,281.112610 309.032440,285.388947 309.032440,289.775391 
	C315.541809,290.443604 311.581360,284.992554 313.285156,283.319397 
	C314.620697,285.465668 316.008881,287.696564 317.397064,289.927490 
	C318.550690,288.482361 319.704285,287.037201 320.772583,285.698944 
	C323.058136,289.717377 323.058136,289.717377 325.660400,289.401550 
	C325.660400,284.640106 325.660400,279.903168 325.660400,275.461029 
	C319.484650,272.784241 318.932220,277.342834 317.529694,281.331482 
	C315.470917,277.919586 315.300201,271.728271 309.032440,276.836243 
M277.053131,280.595825 
	C277.053894,282.753326 276.759003,284.968933 277.167542,287.046234 
	C277.408417,288.271149 278.764313,289.276733 279.618774,290.380951 
	C280.032318,290.097168 280.445892,289.813354 280.859436,289.529572 
	C281.019318,287.905273 281.179199,286.280975 281.366974,284.373413 
	C284.063812,286.420746 283.857391,291.814514 289.084229,289.200989 
	C289.084229,285.444641 289.007996,281.639343 289.107544,277.838623 
	C289.192627,274.589142 287.789459,274.146515 285.221558,275.373871 
	C285.070740,277.030853 284.931763,278.558044 284.759186,280.453979 
	C282.309692,278.143738 282.313507,273.116119 277.053131,275.377808 
	C277.053131,276.715698 277.053131,278.187256 277.053131,280.595825 
M335.570618,286.723785 
	C337.599457,287.971008 339.628265,289.218231 341.657104,290.465454 
	C341.691010,285.588470 341.026031,281.659363 339.690643,277.973114 
	C339.195587,276.606506 337.192169,275.113068 335.754883,274.978516 
	C334.646423,274.874756 332.708374,276.578979 332.254761,277.871002 
	C330.948578,281.591461 330.207520,285.510345 329.244507,289.351288 
	C329.589539,289.702515 329.934601,290.053711 330.279633,290.404907 
	C331.771271,289.207245 333.262909,288.009613 335.570618,286.723785 
M354.885162,283.263885 
	C355.033966,280.934113 356.063141,277.084167 355.164246,276.563599 
	C352.610779,275.084839 349.270111,274.965393 346.008606,274.260956 
	C346.008606,280.260101 346.008606,285.008362 346.008606,289.756622 
	C346.455933,290.020996 346.903229,290.285370 347.350555,290.549744 
	C348.533569,289.062439 349.716614,287.575134 350.737091,286.292175 
	C353.416565,290.556244 353.416565,290.556244 356.927612,287.943665 
	C356.282745,286.681396 355.614624,285.373627 354.885162,283.263885 
M364.973755,285.785522 
	C368.340485,290.846069 368.340485,290.846069 371.798950,287.954010 
	C368.609406,282.670624 368.609406,282.670624 370.320770,274.229858 
	C368.280579,275.507416 366.240387,276.784973 364.704498,277.746765 
	C363.987976,276.907562 362.998657,275.748840 362.009308,274.590118 
	C361.307159,275.951019 360.112610,277.272308 359.999237,278.680634 
	C359.709900,282.274445 359.902863,285.907074 359.902863,289.363159 
	C364.393524,291.204102 364.183929,288.368042 364.973755,285.785522 
M381.348663,283.848328 
	C380.798645,282.308167 380.248627,280.768005 379.820679,279.569641 
	C380.800903,278.599670 382.010437,277.402710 383.219971,276.205780 
	C380.627533,275.544922 378.035126,274.884094 375.095459,274.134735 
	C375.095459,280.116302 375.095459,284.947693 375.095459,290.006104 
	C376.812286,290.006104 378.171600,290.225708 379.419861,289.947205 
	C380.797913,289.639771 382.074097,288.875641 383.394684,288.310425 
	C382.397156,287.565552 381.275818,286.931213 380.463348,286.021118 
	C380.141144,285.660187 380.504364,284.687317 381.348663,283.848328 
M268.023499,282.458191 
	C267.382141,284.782379 266.740814,287.106537 266.043884,289.632111 
	C269.010345,289.632111 271.542694,289.632111 275.274231,289.632111 
	C271.189484,284.640198 271.605347,279.970581 274.890594,275.077759 
	C271.287964,275.077759 268.734833,275.077759 265.795105,275.077759 
	C266.639038,277.549500 267.330933,279.576050 268.023499,282.458191 
M299.190826,274.847748 
	C296.825745,274.847748 294.460632,274.847748 293.026794,274.847748 
	C293.026794,280.305786 293.026794,284.898926 293.026794,289.679688 
	C294.940765,289.679688 297.486755,289.679688 300.629761,289.679688 
	C299.737823,287.178986 298.458099,285.164612 298.436798,283.137024 
	C298.409515,280.542114 299.396149,277.936615 299.190826,274.847748 
M393.325714,274.724121 
	C392.166107,274.722595 390.980743,274.568604 389.853607,274.759216 
	C388.523224,274.984161 387.243256,275.507111 385.941406,275.900848 
	C386.685516,276.930145 387.578186,277.886749 388.128174,279.011017 
	C388.595001,279.965302 388.832336,281.105835 388.878906,282.176697 
	C388.985291,284.620300 388.912506,287.071716 388.912506,289.477631 
	C392.970673,289.795776 392.797302,289.772766 393.187256,286.833466 
	C393.596771,283.746918 391.334930,279.767426 395.892639,277.926331 
	C395.343475,276.865753 394.794342,275.805176 393.325714,274.724121 
z"/>
<path fill="#FF7313" opacity="1.000000" stroke="none" 
	d="
M115.322678,271.146545 
	C110.950226,271.182068 110.878525,268.510773 110.885452,265.662720 
	C110.915848,253.172745 110.970032,240.682037 110.861740,228.192932 
	C110.820076,223.388443 110.368935,218.587524 110.069229,213.147263 
	C106.433922,213.147263 103.154724,213.192108 99.877335,213.134369 
	C96.738045,213.079071 94.290649,211.449402 95.030510,208.333420 
	C95.441383,206.602997 98.093231,204.356750 99.898537,204.197617 
	C105.825211,203.675232 111.826668,204.001251 117.985489,204.001251 
	C118.652611,209.125214 119.271553,213.879166 119.938133,218.998947 
	C127.121773,218.998947 134.094894,218.998947 141.068024,218.998947 
	C158.887161,218.998947 176.706299,218.993301 194.525436,219.001877 
	C201.162155,219.005066 201.881668,219.902557 200.371872,226.238922 
	C197.251938,239.332718 193.986664,252.394150 191.077118,265.534424 
	C190.182022,269.576965 188.276733,270.937408 184.236252,270.929962 
	C161.421570,270.887756 138.606491,271.054474 115.322678,271.146545 
z"/>
<path fill="#FFDF5D" opacity="1.000000" stroke="none" 
	d="
M262.068115,223.098877 
	C262.068146,220.650055 262.068146,218.687531 262.068146,216.350067 
	C268.616394,216.350067 274.754242,215.877090 280.781921,216.489197 
	C286.301331,217.049683 288.987488,220.408386 288.790985,226.156357 
	C288.561646,232.864899 287.159027,239.536072 286.978851,246.242630 
	C286.841827,251.344345 287.810944,256.476807 288.306091,261.593781 
	C288.428986,262.863800 288.622467,264.127014 288.825287,265.722168 
	C284.668610,265.722168 280.898499,265.722168 276.475159,265.722168 
	C276.241486,260.384430 276.006653,255.020676 275.771851,249.656891 
	C275.453186,249.660934 275.134521,249.664993 274.815857,249.669037 
	C274.815857,254.908310 274.815857,260.147583 274.815857,265.687134 
	C270.484985,265.687134 266.724213,265.687134 262.068054,265.687134 
	C262.068054,251.706100 262.068054,237.645645 262.068115,223.098877 
M274.315796,234.394592 
	C274.315796,236.729080 274.315796,239.063583 274.315796,241.398071 
	C277.510254,237.845749 277.420441,228.136856 274.316437,224.388153 
	C274.316437,228.060043 274.316437,230.765717 274.315796,234.394592 
z"/>
<path fill="#0A0A0A" opacity="1.000000" stroke="none" 
	d="
M403.651337,221.987488 
	C406.663940,215.893326 413.609283,213.708527 421.428192,216.052780 
	C427.207977,217.785690 428.737885,221.140717 427.826477,230.811722 
	C426.152893,230.811722 424.407074,230.811707 422.661255,230.811707 
	C421.064117,230.811707 419.466980,230.811722 416.716614,230.811722 
	C418.782654,233.166290 420.069885,234.768890 421.496765,236.235596 
	C427.365082,242.267807 429.029907,249.731659 428.764526,257.785248 
	C428.623047,262.077698 426.368927,265.362640 422.104553,265.938354 
	C417.930237,266.501923 413.523071,266.456635 409.372498,265.759338 
	C405.401520,265.092194 403.288361,261.918854 403.113464,257.800903 
	C403.001709,255.170227 403.092529,252.530945 403.092529,249.521118 
	C407.140442,249.521118 410.901642,249.521118 415.748566,249.521118 
	C409.503174,240.819275 400.753082,233.990936 403.651337,221.987488 
z"/>
<path fill="#070707" opacity="1.000000" stroke="none" 
	d="
M373.823547,234.501053 
	C374.704224,228.315338 375.527008,222.567993 376.402374,216.453247 
	C380.824219,216.453247 385.227753,216.453247 390.360718,216.453247 
	C392.769257,232.589828 395.225403,249.045334 397.722931,265.778015 
	C393.327423,265.778015 389.239838,265.778015 385.126923,265.778015 
	C384.860138,263.699951 384.607544,261.732697 384.354980,259.765442 
	C383.788971,259.750732 383.222931,259.736053 382.656921,259.721344 
	C382.369141,261.623871 382.081390,263.526398 381.748138,265.729797 
	C377.708740,265.729797 373.489105,265.729797 369.110382,265.729797 
	C370.692383,255.266266 372.229004,245.102844 373.823547,234.501053 
z"/>
<path fill="#FFDF5D" opacity="1.000000" stroke="none" 
	d="
M210.834137,216.036774 
	C214.143723,215.655502 215.092667,216.946365 215.011917,219.727173 
	C214.859039,224.991806 214.967712,230.264053 214.967712,235.533127 
	C215.552734,235.560104 216.137772,235.587082 216.722794,235.614059 
	C216.722794,229.282822 216.722794,222.951569 216.722794,216.342712 
	C221.718460,216.342712 225.611710,216.342712 230.334045,216.342712 
	C229.482910,222.781921 228.722672,228.951187 227.841095,235.103058 
	C226.571381,243.963470 225.113022,252.798050 223.946442,261.671417 
	C223.524963,264.877350 222.350525,266.380188 218.905426,266.066986 
	C215.809402,265.785522 212.667603,266.007660 209.172821,266.007660 
	C206.687820,249.258331 204.270279,232.963715 201.758835,216.036179 
	C205.131805,216.036179 207.749756,216.036179 210.834137,216.036774 
z"/>
<path fill="#FFDF5D" opacity="1.000000" stroke="none" 
	d="
M299.106232,239.921265 
	C297.326813,231.928711 295.605103,224.354645 293.788025,216.361023 
	C298.240021,216.361023 302.162445,216.361023 306.667023,216.361023 
	C306.894989,219.977264 307.129669,223.699905 307.364349,227.422546 
	C307.740204,227.459122 308.116028,227.495682 308.491882,227.532242 
	C308.758270,223.998795 309.024658,220.465332 309.324768,216.484634 
	C313.322449,216.484634 317.360840,216.484634 321.650848,216.484634 
	C318.854553,232.637512 316.055359,248.807190 313.147125,265.606567 
	C310.286438,265.606567 306.103363,265.606567 302.348450,265.606567 
	C301.266388,257.021179 300.215179,248.680466 299.106232,239.921265 
z"/>
<path fill="#040404" opacity="1.000000" stroke="none" 
	d="
M356.862579,251.996140 
	C356.862579,253.972443 356.862579,255.453033 356.862579,257.357178 
	C359.307831,257.524902 361.532928,257.677521 364.122070,257.855103 
	C364.122070,260.422607 364.122070,262.958557 364.122070,265.757660 
	C357.542358,265.757660 350.961517,265.757660 344.080505,265.757660 
	C344.080505,249.454117 344.080505,233.096710 344.080505,216.408142 
	C350.559082,216.408142 357.100220,216.408142 363.957031,216.408142 
	C363.957031,218.982971 363.957031,221.715820 363.957031,224.705811 
	C361.733337,224.705811 359.616882,224.705811 357.180725,224.705811 
	C357.180725,229.168152 357.180725,233.384140 357.180725,238.032349 
	C358.931854,238.032349 360.680298,238.032349 362.639923,238.032349 
	C362.639923,240.211121 362.639923,241.971893 362.639923,244.026520 
	C360.925415,244.231628 359.178772,244.440567 356.862579,244.717651 
	C356.862579,246.973465 356.862579,249.236938 356.862579,251.996140 
z"/>
<path fill="#FFDF5D" opacity="1.000000" stroke="none" 
	d="
M249.312180,245.565735 
	C249.087189,249.575317 249.087189,253.192139 249.087189,256.709412 
	C257.501801,258.064850 257.501801,258.064850 256.118561,266.007935 
	C252.966858,266.007935 249.686569,266.007904 246.406281,266.007904 
	C243.109512,266.007904 239.812744,266.007935 236.182739,266.007935 
	C236.182739,249.303787 236.182739,233.070374 236.182739,216.435333 
	C242.563675,216.435333 248.956894,216.435333 255.773529,216.435333 
	C255.773529,218.968277 255.773529,221.530838 255.773529,224.528763 
	C253.822983,224.742935 251.741547,224.971481 249.301300,225.239441 
	C249.301300,229.338394 249.301300,233.386932 249.301300,237.709946 
	C251.016937,237.900238 252.617645,238.077774 254.247559,238.258545 
	C256.341309,243.205338 254.003891,244.922836 249.312180,245.565735 
z"/>
<path fill="#0A0A0A" opacity="1.000000" stroke="none" 
	d="
M434.012665,220.929962 
	C434.012665,219.168579 434.012665,217.872360 434.012665,216.321640 
	C441.380432,216.321640 448.417419,216.321640 455.666382,216.321640 
	C455.666382,219.323196 455.666382,222.092102 455.666382,225.104416 
	C454.312317,225.428345 452.936798,225.757416 451.310852,226.146408 
	C451.310852,239.406540 451.310852,252.480392 451.310852,265.784790 
	C446.954193,265.784790 442.908783,265.784790 438.507568,265.784790 
	C438.507568,252.495056 438.507568,239.427139 438.507568,226.359222 
	C437.954224,226.537720 437.400879,226.716202 436.847504,226.894699 
	C435.902557,225.061493 434.957611,223.228287 434.012665,220.929962 
z"/>
<path fill="#FF7617" opacity="1.000000" stroke="none" 
	d="
M152.677612,297.688171 
	C146.961868,295.922150 143.854279,292.294525 143.443237,286.766266 
	C143.098511,282.129883 144.994995,278.328247 149.059280,275.848694 
	C153.294540,273.264862 157.573105,273.402954 161.756042,275.999176 
	C166.206863,278.761688 168.229919,284.363586 166.710312,289.516693 
	C165.044357,295.166107 160.155609,298.133118 152.677612,297.688171 
z"/>
<path fill="#FF7617" opacity="1.000000" stroke="none" 
	d="
M133.456238,287.525574 
	C131.377335,294.832703 126.612663,298.558167 120.554749,297.938873 
	C114.798012,297.350372 110.322868,292.826752 109.924553,287.193542 
	C109.415962,280.000854 114.232307,274.347412 121.143211,274.025024 
	C128.240723,273.693878 133.124451,278.868744 133.456238,287.525574 
z"/>
<path fill="#FF7617" opacity="1.000000" stroke="none" 
	d="
M45.629066,250.787018 
	C43.774479,246.714874 45.048256,244.825165 49.202755,244.828217 
	C66.510155,244.840897 83.818649,244.750000 101.123207,244.972412 
	C102.747192,244.993286 104.346375,246.945145 105.957062,248.000458 
	C104.534134,249.280441 103.125130,251.655762 101.686157,251.674072 
	C83.717789,251.902588 65.745041,251.796539 47.773567,251.732712 
	C47.161224,251.730545 46.550499,251.271088 45.629066,250.787018 
z"/>
<path fill="#FF842E" opacity="1.000000" stroke="none" 
	d="
M100.609085,274.686615 
	C92.536049,274.686401 84.906677,274.893372 77.304924,274.527069 
	C75.597328,274.444794 73.986290,272.358643 72.330795,271.194977 
	C73.918243,269.902985 75.454544,267.576172 77.101830,267.494781 
	C85.033180,267.102783 93.003586,267.114349 100.938011,267.472626 
	C102.682350,267.551392 105.450386,269.357056 105.806686,270.835144 
	C106.615128,274.189056 103.822510,274.788361 100.609085,274.686615 
z"/>
<path fill="#FF7313" opacity="1.000000" stroke="none" 
	d="
M72.480003,226.145996 
	C74.100006,224.839600 75.624130,223.178909 77.203201,223.124893 
	C85.159187,222.852814 93.138748,222.797989 101.087395,223.161682 
	C102.772812,223.238770 105.453026,225.145416 105.771263,226.619980 
	C106.431816,229.680634 103.733978,230.175262 101.188805,230.167023 
	C93.223595,230.141190 85.248764,230.360504 77.300583,229.991348 
	C75.620285,229.913300 74.037285,227.740341 72.480003,226.145996 
z"/>
<path fill="#090401" opacity="1.000000" stroke="none" 
	d="
M247.867645,289.953308 
	C246.762939,288.789551 245.501953,287.608734 245.475098,286.400482 
	C245.394440,282.771912 245.795319,279.132629 246.008591,275.492889 
	C251.814499,272.261902 252.274933,277.681610 254.361359,281.191711 
	C255.760483,277.223450 256.325378,272.699860 262.998352,275.690002 
	C262.998352,279.340790 263.183014,283.586853 262.858490,287.793579 
	C262.784515,288.752747 260.950806,289.576202 259.418976,290.901764 
	C258.785858,287.772858 258.433685,286.032318 258.097046,284.368591 
	C256.670929,286.303711 255.344589,288.103363 254.018250,289.903046 
	C252.781418,287.936798 251.544586,285.970520 250.439362,284.213501 
	C249.814758,285.861786 249.045166,287.892761 247.867645,289.953308 
z"/>
<path fill="#090401" opacity="1.000000" stroke="none" 
	d="
M309.082245,276.378418 
	C315.300201,271.728271 315.470917,277.919586 317.529694,281.331482 
	C318.932220,277.342834 319.484650,272.784241 325.660400,275.461029 
	C325.660400,279.903168 325.660400,284.640106 325.660400,289.401550 
	C323.058136,289.717377 323.058136,289.717377 320.772583,285.698944 
	C319.704285,287.037201 318.550690,288.482361 317.397064,289.927490 
	C316.008881,287.696564 314.620697,285.465668 313.285156,283.319397 
	C311.581360,284.992554 315.541809,290.443604 309.032440,289.775391 
	C309.032440,285.388947 309.032440,281.112610 309.082245,276.378418 
z"/>
<path fill="#090401" opacity="1.000000" stroke="none" 
	d="
M277.053131,280.127319 
	C277.053131,278.187256 277.053131,276.715698 277.053131,275.377808 
	C282.313507,273.116119 282.309692,278.143738 284.759186,280.453979 
	C284.931763,278.558044 285.070740,277.030853 285.221558,275.373871 
	C287.789459,274.146515 289.192627,274.589142 289.107544,277.838623 
	C289.007996,281.639343 289.084229,285.444641 289.084229,289.200989 
	C283.857391,291.814514 284.063812,286.420746 281.366974,284.373413 
	C281.179199,286.280975 281.019318,287.905273 280.859436,289.529572 
	C280.445892,289.813354 280.032318,290.097168 279.618774,290.380951 
	C278.764313,289.276733 277.408417,288.271149 277.167542,287.046234 
	C276.759003,284.968933 277.053894,282.753326 277.053131,280.127319 
z"/>
<path fill="#090401" opacity="1.000000" stroke="none" 
	d="
M335.162598,286.767883 
	C333.262909,288.009613 331.771271,289.207245 330.279633,290.404907 
	C329.934601,290.053711 329.589539,289.702515 329.244507,289.351288 
	C330.207520,285.510345 330.948578,281.591461 332.254761,277.871002 
	C332.708374,276.578979 334.646423,274.874756 335.754883,274.978516 
	C337.192169,275.113068 339.195587,276.606506 339.690643,277.973114 
	C341.026031,281.659363 341.691010,285.588470 341.657104,290.465454 
	C339.628265,289.218231 337.599457,287.971008 335.162598,286.767883 
z"/>
<path fill="#090401" opacity="1.000000" stroke="none" 
	d="
M354.915833,283.664856 
	C355.614624,285.373627 356.282745,286.681396 356.927612,287.943665 
	C353.416565,290.556244 353.416565,290.556244 350.737091,286.292175 
	C349.716614,287.575134 348.533569,289.062439 347.350555,290.549744 
	C346.903229,290.285370 346.455933,290.020996 346.008606,289.756622 
	C346.008606,285.008362 346.008606,280.260101 346.008606,274.260956 
	C349.270111,274.965393 352.610779,275.084839 355.164246,276.563599 
	C356.063141,277.084167 355.033966,280.934113 354.915833,283.664856 
z"/>
<path fill="#090401" opacity="1.000000" stroke="none" 
	d="
M364.626221,285.821503 
	C364.183929,288.368042 364.393524,291.204102 359.902863,289.363159 
	C359.902863,285.907074 359.709900,282.274445 359.999237,278.680634 
	C360.112610,277.272308 361.307159,275.951019 362.009308,274.590118 
	C362.998657,275.748840 363.987976,276.907562 364.704498,277.746765 
	C366.240387,276.784973 368.280579,275.507416 370.320770,274.229858 
	C368.609406,282.670624 368.609406,282.670624 371.798950,287.954010 
	C368.340485,290.846069 368.340485,290.846069 364.626221,285.821503 
z"/>
<path fill="#090401" opacity="1.000000" stroke="none" 
	d="
M380.952087,283.920715 
	C380.504364,284.687317 380.141144,285.660187 380.463348,286.021118 
	C381.275818,286.931213 382.397156,287.565552 383.394684,288.310425 
	C382.074097,288.875641 380.797913,289.639771 379.419861,289.947205 
	C378.171600,290.225708 376.812286,290.006104 375.095459,290.006104 
	C375.095459,284.947693 375.095459,280.116302 375.095459,274.134735 
	C378.035126,274.884094 380.627533,275.544922 383.219971,276.205780 
	C382.010437,277.402710 380.800903,278.599670 379.820679,279.569641 
	C380.248627,280.768005 380.798645,282.308167 380.952087,283.920715 
z"/>
<path fill="#090401" opacity="1.000000" stroke="none" 
	d="
M268.023193,282.030396 
	C267.330933,279.576050 266.639038,277.549500 265.795105,275.077759 
	C268.734833,275.077759 271.287964,275.077759 274.890594,275.077759 
	C271.605347,279.970581 271.189484,284.640198 275.274231,289.632111 
	C271.542694,289.632111 269.010345,289.632111 266.043884,289.632111 
	C266.740814,287.106537 267.382141,284.782379 268.023193,282.030396 
z"/>
<path fill="#090401" opacity="1.000000" stroke="none" 
	d="
M299.568359,275.091705 
	C299.396149,277.936615 298.409515,280.542114 298.436798,283.137024 
	C298.458099,285.164612 299.737823,287.178986 300.629761,289.679688 
	C297.486755,289.679688 294.940765,289.679688 293.026794,289.679688 
	C293.026794,284.898926 293.026794,280.305786 293.026794,274.847748 
	C294.460632,274.847748 296.825745,274.847748 299.568359,275.091705 
z"/>
<path fill="#090401" opacity="1.000000" stroke="none" 
	d="
M393.785461,274.734375 
	C394.794342,275.805176 395.343475,276.865753 395.892639,277.926331 
	C391.334930,279.767426 393.596771,283.746918 393.187256,286.833466 
	C392.797302,289.772766 392.970673,289.795776 388.912506,289.477631 
	C388.912506,287.071716 388.985291,284.620300 388.878906,282.176697 
	C388.832336,281.105835 388.595001,279.965302 388.128174,279.011017 
	C387.578186,277.886749 386.685516,276.930145 385.941406,275.900848 
	C387.243256,275.507111 388.523224,274.984161 389.853607,274.759216 
	C390.980743,274.568604 392.166107,274.722595 393.785461,274.734375 
z"/>
<path fill="#FFFFFF" opacity="1.000000" stroke="none" 
	d="
M274.316101,233.932999 
	C274.316437,230.765717 274.316437,228.060043 274.316437,224.388153 
	C277.420441,228.136856 277.510254,237.845749 274.315796,241.398071 
	C274.315796,239.063583 274.315796,236.729080 274.316101,233.932999 
z"/>
</svg>