<?xml version="1.0" standalone="no"?>
<!DOCTYPE svg PUBLIC "-//W3C//DTD SVG 20010904//EN"
 "http://www.w3.org/TR/2001/REC-SVG-20010904/DTD/svg10.dtd">
<svg version="1.0" xmlns="http://www.w3.org/2000/svg"
 width="500.000000pt" height="500.000000pt" viewBox="0 0 500.000000 500.000000"
 preserveAspectRatio="xMidYMid meet">

<g transform="translate(0.000000,500.000000) scale(0.100000,-0.100000)"
fill="#000000" stroke="none">
<path d="M2595 3250 l-70 -5 2 -47 c0 -27 1 -138 2 -248 l1 -200 60 0 60 0 0
95 0 95 41 0 c60 0 75 -13 100 -87 28 -85 55 -113 109 -113 45 0 100 24 100
43 0 24 -20 42 -47 42 -25 0 -30 6 -46 55 -10 30 -24 61 -32 69 -12 12 -9 16
18 30 105 53 100 195 -8 250 -50 26 -134 32 -290 21z m230 -115 c31 -30 31
-47 3 -79 -20 -23 -32 -26 -100 -29 l-78 -4 0 69 0 68 75 0 c67 0 79 -3 100
-25z"/>
<path d="M3014 3245 c3 -9 42 -81 86 -161 l79 -143 3 -93 3 -93 60 0 60 0 5
95 5 95 78 147 c42 82 77 152 77 158 0 6 -27 10 -61 10 l-61 0 -51 -110 -51
-111 -56 108 -55 108 -64 3 c-55 3 -63 1 -57 -13z"/>
<path d="M1570 3243 c0 -5 40 -116 89 -248 l89 -240 72 0 73 0 83 230 c46 126
86 237 90 247 5 16 -2 18 -59 18 l-64 0 -59 -189 c-32 -104 -61 -188 -64 -186
-4 2 -33 87 -66 189 l-59 186 -62 0 c-35 0 -63 -3 -63 -7z"/>
<path d="M2110 3000 l0 -250 183 2 182 3 0 45 0 45 -123 3 -123 3 3 57 3 57
55 2 c30 1 76 2 103 2 l47 1 0 40 0 40 -105 0 -105 0 0 50 0 50 80 1 c71 1
118 4 150 8 6 0 10 21 10 46 l0 45 -180 0 -180 0 0 -250z"/>
<path d="M1630 2600 c-369 -11 -451 -23 -552 -83 -54 -32 -166 -147 -201 -207
-31 -53 -57 -147 -57 -206 0 -60 37 -193 65 -236 62 -93 180 -142 385 -158 69
-5 654 -10 1300 -12 l1175 -3 75 23 c71 23 80 29 176 125 132 133 148 169 148
342 0 149 -17 212 -75 279 -79 90 -152 110 -459 126 -255 14 -1630 21 -1980
10z m1861 -50 c326 -12 402 -21 468 -55 109 -55 145 -137 139 -323 -3 -104 -6
-123 -31 -175 -33 -66 -89 -114 -175 -149 l-57 -23 -1155 2 c-1222 1 -1419 7
-1526 43 -76 26 -136 76 -172 144 -25 46 -27 61 -27 161 0 105 2 114 33 177
52 106 141 167 269 183 177 24 1713 34 2234 15z"/>
<path d="M2700 2489 c-117 -35 -177 -162 -117 -249 32 -49 72 -68 182 -89 105
-20 126 -31 109 -59 -24 -38 -112 -22 -133 25 -9 19 -17 24 -34 20 -12 -3 -52
-11 -89 -18 -38 -7 -68 -17 -68 -23 0 -34 46 -99 88 -123 41 -24 60 -28 147
-31 110 -4 164 6 215 40 45 31 69 66 76 110 20 120 -51 183 -228 204 -31 3
-65 12 -74 19 -20 14 -13 42 11 52 23 8 66 -14 72 -38 5 -16 11 -20 32 -15 14
3 54 11 89 17 71 14 76 25 40 79 -36 54 -105 83 -201 87 -45 1 -98 -2 -117 -8z"/>
<path d="M1540 2220 l0 -260 199 0 c225 0 211 -6 211 86 l0 54 -105 0 -105 0
0 30 0 30 85 0 86 0 -3 63 -3 62 -82 3 c-74 3 -83 5 -83 22 0 18 9 20 98 22
l97 3 3 73 3 72 -201 0 -200 0 0 -260z"/>
<path d="M2041 2233 c-46 -137 -86 -254 -89 -260 -3 -10 21 -13 102 -13 l105
0 11 40 11 41 67 -3 67 -3 9 -37 10 -38 106 0 106 0 -87 258 -86 257 -124 3
-124 2 -84 -247z m249 -70 c0 -2 -19 -3 -41 -3 -40 0 -41 1 -35 28 4 15 12 53
18 84 l12 57 23 -82 c13 -45 23 -83 23 -84z"/>
<path d="M3080 2474 c0 -3 38 -79 85 -168 l85 -163 0 -91 0 -92 105 0 105 0 0
93 c0 52 2 96 4 98 3 2 41 78 85 167 l81 163 -106 -3 -106 -3 -34 -90 c-18
-49 -33 -84 -33 -76 -1 8 -15 50 -33 93 l-32 78 -103 0 c-57 0 -103 -3 -103
-6z"/>
</g>
</svg>
